# xmcd
#
# Track frame offsets:
#	182
#	13305
#	28417
#	40680
#	52005
#	76422
#	90360
#	102127
#	112680
#	126200
#	139830
#	152822
#	165030
#	174982
#	186330
#	199980
#	213055
#	227177
#	240292
#	256372
#
# Disc length: 3580 seconds
# Revision: 0
# Processed by: cddbd v1.5.2PL0 Copyright (c) Steve Scherf et al.
# Submitted via: dBpowerAMP V12.0
#
DISCID=fd0dfa14
DTITLE=Various Artist - 三四十年代1
DYEAR=1999
DGENRE=Blues
TTITLE0=周璇 - 夜上海(周璇)
TTITLE1=李香蘭 - 夜來香(李香蘭)
TTITLE2=黃飛然 - 初戀女(黃飛然)
TTITLE3=姚莉 - 玫瑰玫瑰我愛你(姚莉)
TTITLE4=周璇 - 何日君再來(周璇)
TTITLE5=姚敏 - 田園之歌(姚敏)
TTITLE6=周璇 - 陋巷之春(周璇)
TTITLE7=周璇 - 採檳榔(周璇)
TTITLE8=吳鶯音 - 明月千裡寄相思(吳鶯音)
TTITLE9=白虹 - 莎莎再會吧(白虹)
TTITLE10=吳鶯音 - 儂本痴情(吳鶯音)
TTITLE11=趙丹 - 春天裡(趙丹)
TTITLE12=周璇 - 四季歌(周璇)
TTITLE13=周璇 - 天涯歌女(周璇)
TTITLE14=李麗華、姚敏 - 千裡送京娘(李麗華、姚敏)
TTITLE15=周璇 - 瘋狂世界(周璇)
TTITLE16=鷗陽飛鶯 - 香格裡拉(鷗陽飛鶯)
TTITLE17=白光 - 戀之火(白光)
TTITLE18=李香蘭 - 恨不相逢未嫁時(李香蘭)
TTITLE19=黃飛然 - 青春舞曲(黃飛然)
EXTD=
EXTT0=
EXTT1=
EXTT2=
EXTT3=
EXTT4=
EXTT5=
EXTT6=
EXTT7=
EXTT8=
EXTT9=
EXTT10=
EXTT11=
EXTT12=
EXTT13=
EXTT14=
EXTT15=
EXTT16=
EXTT17=
EXTT18=
EXTT19=
PLAYORDER=
